<svg width="120" height="40" viewBox="0 0 120 40" fill="none" xmlns="http://www.w3.org/2000/svg">
  <rect width="120" height="40" rx="10" fill="#0A66C2"/>
  <rect x="16" y="12" width="16" height="16" rx="3" fill="#FFFFFF"/>
  <path d="M21 19H24V25H21V19ZM22.5 18.2C23.4 18.2 24 17.6 24 16.9C24 16.1 23.4 15.5 22.5 15.5C21.7 15.5 21 16.1 21 16.9C21 17.6 21.7 18.2 22.5 18.2Z" fill="#0A66C2"/>
  <path d="M26 19H28.9V19.9H29C29.4 19.2 30.3 18.8 31.4 18.8C33.6 18.8 34 20.1 34 22V25H31V22.3C31 21.6 31 20.7 30 20.7C29 20.7 28.8 21.5 28.8 22.3V25H26V19Z" fill="#0A66C2"/>
  <text x="79" y="25" text-anchor="middle" fill="#FFFFFF" font-family="Inter, Arial" font-size="13" font-weight="700">LinkedIn</text>
</svg>
